<svg width="42" height="42" viewBox="0 0 42 42" fill="none" xmlns="http://www.w3.org/2000/svg">
<circle cx="21" cy="21" r="20" fill="#155B4A" stroke="#FFFFFF" stroke-width="2"/>
<path d="M 19 16 C 10.5362 16.8478 11.0575 14.5363 11.0575 13.6401 C 11.0575 13.3983 11.0886 13.2347 11.1508 13.1494 C 11.2286 13.0498 11.3686 13 11.5709 13 C 18.6427 16.3784 18 13 21 12 C 22 14 22 14 21 15 C 20.9767 15.5178 20.6266 16.9616 19.9264 19.3798 C 19.0551 22.3599 18.7127 23.5263 18.526 24.1807 C 18.3549 24.8208 18.2148 25.3329 18.1059 25.7169 C 17.997 26.101 17.8803 26.4851 17.7558 26.8691 C 17.538 27.623 17.3435 28 17.1724 28 C 8 28 9 28 8 26 C 12 26 16 27 17.3824 20.9801 Z" fill="#FFFFFF"/>
<path d="M27.893 14.7698L24.107 14.9424C23.8708 14.9424 23.6273 14.7914 23.3764 14.4892C23.1255 14.1871 23 13.8921 23 13.6043C23 13.3453 23.4207 13.1799 24.262 13.1079C25.1181 13.036 26.9852 13 29.8635 13C31.3542 13 32.5793 13.1583 33.5387 13.4748C34.5129 13.7914 35 14.1439 35 14.5324C35 14.8058 34.7565 14.9424 34.2694 14.9424C33.7823 14.9424 33.1033 14.9137 32.2325 14.8561C31.3616 14.7986 30.5277 14.7626 29.7306 14.7482C29.7749 14.8921 29.797 15.0504 29.797 15.223C29.797 15.7554 29.2214 18.2302 28.0701 22.6475C27.952 23.1079 27.7749 23.8273 27.5387 24.8058C27.3026 25.7842 27.1255 26.4676 27.0074 26.8561C26.8007 27.6187 26.6162 28 26.4539 28C26.2325 28 25.9815 27.8417 25.7011 27.5252C25.4354 27.1942 25.3026 26.8633 25.3026 26.5324C25.3026 26.2014 25.7011 24.5036 26.4982 21.4388C27.2952 18.3597 27.7601 16.1367 27.893 14.7698Z" fill="#FFFFFF"/>
</svg>
